# File created by Blade
# Date/Time:  Fri Jan 16 19:49:56 2015
# Frame Rate: 120.000 fps
#------------------------------------------------------
:FULLY-SPECIFIED
:DEGREES
891
root 19.320743 35.357971 -21.277248 -171.602402 -1.993855 -179.709817
Spine -21.626106 -0.832258 0.227375
Head 11.629858 -0.778372 0.509537
LeftShoulder -11.463255 -39.419500 21.135271
LeftArm 8.226502 9.990541 -3.785142
LeftForeArm 22.251517 -0.000000 -0.983782
LeftHand -7.193747 -0.000000 -4.319576
LeftHandThumb1 -26.253704 0.000000 33.147579
RightShoulder -11.064370 1.371999 -12.786641
RightArm 9.393786 34.003948 4.961125
RightForeArm -42.193374 -0.000000 4.880653
RightHand -4.813286 -0.000000 12.253942
RightHandThumb1 -24.326973 -0.000000 -32.862282
LeftUpLeg 0.290378 5.905534 3.337937
LeftLeg -6.544827 -0.000000 0.000000
LeftFoot -19.960884 25.541058 -13.217352
LeftToeBase 27.461448 -0.000000 -0.000000
RightUpLeg 0.174346 -7.860256 -4.035286
RightLeg -3.470810 -0.000000 0.000000
RightFoot -21.052198 -19.723548 17.541420
RightToeBase 25.955173 -0.000000 -0.000000
892
root 19.321516 35.356648 -21.281569 -171.626077 -1.989687 -179.718027
Spine -21.601136 -0.828943 0.225304
Head 11.620535 -0.796920 0.550280
LeftShoulder -11.474116 -39.407345 21.138612
LeftArm 8.262575 10.062058 -3.806795
LeftForeArm 22.142220 0.000000 -0.983470
LeftHand -7.185765 -0.000000 -4.310151
LeftHandThumb1 -26.253704 0.000000 33.147579
RightShoulder -11.069404 1.371149 -12.769641
RightArm 9.502313 34.073152 5.018177
RightForeArm -42.154375 -0.000000 4.911867
RightHand -4.870421 0.000000 12.424898
RightHandThumb1 -24.326973 -0.000000 -32.862282
LeftUpLeg 0.319798 5.882652 3.333384
LeftLeg -6.537216 -0.000000 0.000000
LeftFoot -19.997881 25.564618 -13.245288
LeftToeBase 27.486866 -0.000000 -0.000000
RightUpLeg 0.201680 -7.822240 -4.050496
RightLeg -3.462855 -0.000000 0.000000
RightFoot -21.066821 -19.722875 17.610436
RightToeBase 25.836973 -0.000000 -0.000000
893
root 19.322817 35.355425 -21.285251 -171.639243 -1.982727 -179.732297
Spine -21.595590 -0.818173 0.206865
Head 11.641238 -0.850732 0.563413
LeftShoulder -11.456761 -39.377562 21.124973
LeftArm 8.288509 10.028915 -3.827779
LeftForeArm 22.111708 -0.000000 -0.987917
LeftHand -7.170728 0.000000 -4.288948
LeftHandThumb1 -26.253704 0.000000 33.147579
RightShoulder -11.053442 1.378872 -12.765773
RightArm 9.562533 34.049539 5.059215
RightForeArm -42.028430 -0.000000 4.871280
RightHand -4.966448 -0.000000 12.317889
RightHandThumb1 -24.326973 -0.000000 -32.862282
LeftUpLeg 0.334339 5.883862 3.323768
LeftLeg -6.525622 -0.000000 0.000000
LeftFoot -20.000041 25.561523 -13.264395
LeftToeBase 27.414518 -0.000000 -0.000000
RightUpLeg 0.219780 -7.788354 -4.068211
RightLeg -3.456082 -0.000000 0.000000
RightFoot -21.107609 -19.747652 17.537368
RightToeBase 25.973624 -0.000000 -0.000000
894
root 19.323505 35.354716 -21.288265 -171.647790 -1.973465 -179.740126
Spine -21.588322 -0.827228 0.205747
Head 11.637244 -0.866672 0.597286
LeftShoulder -11.483496 -39.334019 21.133546
LeftArm 8.317396 9.962475 -3.855667
LeftForeArm 22.073757 -0.000000 -0.986271
LeftHand -7.161552 -0.000000 -4.264716
LeftHandThumb1 -26.253704 0.000000 33.147579
RightShoulder -11.024465 1.325676 -12.734113
RightArm 9.624371 34.094656 5.074286
RightForeArm -42.032729 -0.000000 4.869419
RightHand -4.913543 -0.000000 12.354012
RightHandThumb1 -24.326973 -0.000000 -32.862282
LeftUpLeg 0.346231 5.903411 3.318036
LeftLeg -6.519472 -0.000000 0.000000
LeftFoot -20.026437 25.526986 -13.309630
LeftToeBase 27.475352 -0.000000 -0.000000
RightUpLeg 0.231516 -7.762891 -4.078110
RightLeg -3.454363 -0.000000 0.000000
RightFoot -21.122548 -19.765363 17.510442
RightToeBase 25.966722 -0.000000 -0.000000
895
root 19.323863 35.353963 -21.291303 -171.658616 -1.965382 -179.743666
Spine -21.577803 -0.810098 0.205886
Head 11.633515 -0.920335 0.607968
LeftShoulder -11.469945 -39.315412 21.105057
LeftArm 8.333162 9.918485 -3.868538
LeftForeArm 22.059297 -0.000000 -0.966528
LeftHand -7.145604 -0.000000 -4.344822
LeftHandThumb1 -26.253704 0.000000 33.147579
RightShoulder -11.011032 1.326633 -12.728786
RightArm 9.660903 34.059040 5.081280
RightForeArm -42.046341 -0.000000 4.828644
RightHand -4.930640 -0.000000 12.406862
RightHandThumb1 -24.326973 -0.000000 -32.862282
LeftUpLeg 0.364046 5.905570 3.319868
LeftLeg -6.516059 -0.000000 0.000000
LeftFoot -20.025726 25.524463 -13.281096
LeftToeBase 27.494372 -0.000000 -0.000000
RightUpLeg 0.244908 -7.763026 -4.081338
RightLeg -3.453051 -0.000000 0.000000
RightFoot -21.124180 -19.774441 17.470961
RightToeBase 25.997404 -0.000000 -0.000000
896
root 19.324500 35.353590 -21.294012 -171.663699 -1.964527 -179.742785
Spine -21.576538 -0.808399 0.220898
Head 11.632015 -0.956495 0.603837
LeftShoulder -11.466170 -39.292947 21.073886
LeftArm 8.346459 9.887992 -3.873389
LeftForeArm 21.985336 0.000000 -0.948512
LeftHand -7.182019 -0.000000 -4.339448
LeftHandThumb1 -26.253704 0.000000 33.147579
RightShoulder -10.984350 1.313123 -12.722555
RightArm 9.687581 34.020294 5.072390
RightForeArm -41.999079 0.000000 4.798273
RightHand -4.942329 -0.000000 12.409725
RightHandThumb1 -24.326973 -0.000000 -32.862282
LeftUpLeg 0.376637 5.900292 3.323289
LeftLeg -6.520884 -0.000000 0.000000
LeftFoot -20.036365 25.518038 -13.314583
LeftToeBase 27.468337 -0.000000 -0.000000
RightUpLeg 0.250087 -7.789694 -4.078290
RightLeg -3.447247 -0.000000 0.000000
RightFoot -21.123806 -19.758822 17.477575
RightToeBase 25.965839 -0.000000 -0.000000
897
root 19.324607 35.353565 -21.295784 -171.655059 -1.950518 -179.743817
Spine -21.588213 -0.781167 0.223641
Head 11.629239 -1.010270 0.610538
LeftShoulder -11.455328 -39.284131 21.043159
LeftArm 8.365330 9.873992 -3.878926
LeftForeArm 21.890838 -0.000000 -0.938073
LeftHand -7.221695 -0.000000 -4.317021
LeftHandThumb1 -26.253704 0.000000 33.147579
RightShoulder -10.984180 1.307915 -12.711301
RightArm 9.709233 33.965480 5.069699
RightForeArm -42.012105 -0.000000 4.814677
RightHand -4.991896 0.000000 12.420754
RightHandThumb1 -24.326973 -0.000000 -32.862282
LeftUpLeg 0.373989 5.935802 3.319702
LeftLeg -6.523212 -0.000000 0.000000
LeftFoot -20.033587 25.503993 -13.319341
LeftToeBase 27.469492 -0.000000 -0.000000
RightUpLeg 0.234557 -7.794554 -4.074685
RightLeg -3.434397 -0.000000 0.000000
RightFoot -21.131324 -19.766294 17.453910
RightToeBase 25.975252 -0.000000 -0.000000
